<?xml version="1.0" encoding="UTF-8"?>
<svg id="uuid-95786e36-b726-48e0-907a-5ea4f6988c8e" data-name="Capa 2" xmlns="http://www.w3.org/2000/svg" viewBox="0 0 6000 709.58">
  <defs>
    <style>
      .uuid-8c230f70-3c79-4a1d-807e-6f6407517c4f {
        fill: #004254;
      }
    </style>
  </defs>
  <g id="uuid-3b1c9a35-a03c-435a-aa55-c20a7f0b7217" data-name="Capa 1">
    <g>
      <g>
        <path class="uuid-8c230f70-3c79-4a1d-807e-6f6407517c4f" d="M0,699.23l39.07,10.35s477.84-145.63,623.29-155.56c145.44,9.93,623.3,155.56,623.3,155.56l39.06-10.35s-415.57-285.57-662.36-291.12C415.58,413.67,0,699.23,0,699.23"/>
        <path class="uuid-8c230f70-3c79-4a1d-807e-6f6407517c4f" d="M1324.71,10.35l-39.06-10.35s-477.86,145.63-623.29,155.56C516.91,145.63,39.06,0,39.06,0L0,10.35s415.57,285.57,662.37,291.12c246.77-5.55,662.34-291.12,662.34-291.12"/>
      </g>
      <path class="uuid-8c230f70-3c79-4a1d-807e-6f6407517c4f" d="M1668.08,34.13h170.06v640.01h-170.06V34.13ZM2039.28,34.13h304.46l332.8,497.38h36.57V34.13h170.06v640.01h-304.46l-332.8-497.38h-36.57v497.38h-170.06V34.13ZM3084.32,34.13h492.8c218.52,0,352,121.61,352,320.01s-133.49,320-352,320h-492.8V34.13ZM3754.5,354.14c0-115.21-62.18-177.37-177.37-177.37h-322.75v354.74h322.75c115.2,0,177.37-62.17,177.37-177.37ZM4066.27,34.13h554.06c176.46,0,280.69,85.03,280.69,229.49,0,105.15-55.77,179.21-153.6,211.2v14.63l157.25,181.04v3.65h-195.66l-153.6-181.03h-319.09v181.03h-170.06V34.13ZM4726.39,263.62c0-55.77-37.49-86.86-106.06-86.86h-384v173.71h384c68.57,0,106.06-31.08,106.06-86.86ZM4996.1,670.49l381.26-636.36h241.37l381.26,636.36v3.65h-189.26l-68.57-118.86h-488.23l-68.57,118.86h-189.26v-3.65ZM5660.79,412.65l-135.31-235.89h-54.86l-135.31,235.89h325.48Z"/>
    </g>
  </g>
</svg>